<?xml version="1.0" standalone="no"?>
<!DOCTYPE svg PUBLIC "-//W3C//DTD SVG 20010904//EN"
 "http://www.w3.org/TR/2001/REC-SVG-20010904/DTD/svg10.dtd">
<svg version="1.0" xmlns="http://www.w3.org/2000/svg"
 width="360.000000pt" height="360.000000pt" viewBox="0 0 360.000000 360.000000"
 preserveAspectRatio="xMidYMid meet">

<g transform="translate(0.000000,360.000000) scale(0.100000,-0.100000)"
fill="#000000" stroke="none">
<path d="M1595 2463 c-172 -23 -354 -144 -443 -295 -200 -339 -85 -798 240
-957 120 -59 191 -75 333 -75 134 0 212 16 310 64 64 31 192 131 202 157 4 11
-5 27 -29 47 -19 17 -64 57 -101 89 l-65 58 -49 -37 c-91 -70 -145 -89 -258
-89 -83 0 -108 4 -150 23 -83 38 -148 116 -169 205 l-6 27 332 0 333 0 49 88
c43 78 49 95 51 157 8 183 123 314 312 356 29 7 53 16 53 22 0 18 -62 67 -98
77 -20 5 -68 13 -105 17 -51 4 -70 10 -78 24 -24 45 -51 49 -351 48 -156 -1
-296 -4 -313 -6z m211 -311 c73 -37 132 -123 149 -214 l7 -38 -276 0 -276 0 1
23 c1 55 74 180 123 213 76 49 194 56 272 16z"/>
</g>
</svg>
